<svg xmlns="http://www.w3.org/2000/svg" viewBox="0 0 200 200" fill="none" stroke="#000" stroke-width="6" stroke-linejoin="round">
  <rect x="14" y="62" width="172" height="78" rx="8"/>
  <rect x="28" y="76" width="18" height="14" rx="3" fill="#000"/>
  <rect x="54" y="76" width="18" height="14" rx="3" fill="#000"/>
  <rect x="80" y="76" width="18" height="14" rx="3" fill="#000"/>
  <rect x="106" y="76" width="18" height="14" rx="3" fill="#000"/>
  <rect x="132" y="76" width="18" height="14" rx="3" fill="#000"/>
  <rect x="158" y="76" width="18" height="14" rx="3" fill="#000"/>
  <rect x="28" y="98" width="18" height="14" rx="3" fill="#000"/>
  <rect x="54" y="98" width="78" height="14" rx="3" fill="#000"/>
  <rect x="140" y="98" width="18" height="14" rx="3" fill="#000"/>
  <rect x="166" y="98" width="10" height="14" rx="3" fill="#000"/>
  <rect x="28" y="120" width="148" height="12" rx="3" fill="#000"/>
</svg>
