<svg xmlns="http://www.w3.org/2000/svg" viewBox="0 0 1200 600" role="img" aria-label="MCP explained cover">
  <rect width="1200" height="600" fill="#ffe9e4"/>
  <rect x="500" y="20" width="200" height="22" rx="4" fill="#fff6db" opacity="0.9" transform="rotate(-3 600 31)"/>
  <g transform="translate(90,150)">
    <rect width="200" height="120" rx="20" fill="#fff" stroke="#1d1815" stroke-width="2"/>
    <text x="20" y="36" font-family="Inter, sans-serif" font-weight="900" font-size="13" fill="rgba(29,24,21,0.5)" letter-spacing="2">CLIENT</text>
    <text x="20" y="70" font-family="Inter, sans-serif" font-weight="900" font-size="20" fill="#1d1815">Claude</text>
    <text x="20" y="98" font-family="Inter, sans-serif" font-size="14" fill="rgba(29,24,21,0.65)">desktop · code · sdk</text>
  </g>
  <g transform="translate(500,150)">
    <rect width="200" height="120" rx="20" fill="#fff6db" stroke="#1d1815" stroke-width="2"/>
    <text x="20" y="36" font-family="Inter, sans-serif" font-weight="900" font-size="13" fill="rgba(29,24,21,0.5)" letter-spacing="2">PROTOCOL</text>
    <text x="20" y="72" font-family="Inter, sans-serif" font-weight="900" font-size="20" fill="#1d1815">MCP</text>
    <text x="20" y="98" font-family="Inter, sans-serif" font-size="14" fill="rgba(29,24,21,0.65)">tools · resources · prompts</text>
  </g>
  <g transform="translate(910,90)">
    <rect width="200" height="80" rx="18" fill="#1d1815"/>
    <text x="18" y="34" font-family="Inter, sans-serif" font-weight="900" font-size="13" fill="rgba(255,255,255,0.5)" letter-spacing="2">SERVER</text>
    <text x="18" y="62" font-family="ui-monospace, monospace" font-size="16" fill="#f6efe6">github · linear · notion</text>
  </g>
  <g transform="translate(910,200)">
    <rect width="200" height="80" rx="18" fill="#1d1815"/>
    <text x="18" y="34" font-family="Inter, sans-serif" font-weight="900" font-size="13" fill="rgba(255,255,255,0.5)" letter-spacing="2">SERVER</text>
    <text x="18" y="62" font-family="ui-monospace, monospace" font-size="16" fill="#f6efe6">postgres · s3 · slack</text>
  </g>
  <g transform="translate(910,310)">
    <rect width="200" height="80" rx="18" fill="#1d1815"/>
    <text x="18" y="34" font-family="Inter, sans-serif" font-weight="900" font-size="13" fill="rgba(255,255,255,0.5)" letter-spacing="2">SERVER</text>
    <text x="18" y="62" font-family="ui-monospace, monospace" font-size="16" fill="#f6efe6">your custom tool</text>
  </g>
  <path d="M 290 210 L 500 210" stroke="#1d1815" stroke-width="3" fill="none"/>
  <polygon points="498,206 510,210 498,214" fill="#1d1815"/>
  <path d="M 700 210 L 905 130" stroke="#ff6b6b" stroke-width="3" fill="none" stroke-linecap="round"/>
  <path d="M 700 210 L 905 240" stroke="#ff6b6b" stroke-width="3" fill="none" stroke-linecap="round"/>
  <path d="M 700 210 L 905 350" stroke="#ff6b6b" stroke-width="3" fill="none" stroke-linecap="round"/>
  <g transform="translate(90,420)">
    <text x="0" y="40" font-family="Inter, sans-serif" font-weight="900" font-size="44" fill="#1d1815" letter-spacing="-2">MCP, explained for people with real work to do.</text>
  </g>
</svg>
